<svg width="115" height="33" viewBox="0 0 115 33" fill="none" xmlns="http://www.w3.org/2000/svg">
<path fill-rule="evenodd" clip-rule="evenodd" d="M27.2771 9.33082C29.717 9.33082 31.6949 7.35397 31.6949 4.91541C31.6949 2.47685 29.717 0.5 27.2771 0.5C24.8373 0.5 22.8594 2.47685 22.8594 4.91541C22.8594 7.35397 24.8373 9.33082 27.2771 9.33082Z" fill="#FF2D33"/>
<path fill-rule="evenodd" clip-rule="evenodd" d="M27.2771 20.9168C29.717 20.9168 31.6949 18.9399 31.6949 16.5014C31.6949 14.0628 29.717 12.0859 27.2771 12.0859C24.8373 12.0859 22.8594 14.0628 22.8594 16.5014C22.8594 18.9399 24.8373 20.9168 27.2771 20.9168Z" fill="#D53D5C"/>
<path fill-rule="evenodd" clip-rule="evenodd" d="M27.2771 32.4988C29.717 32.4988 31.6949 30.522 31.6949 28.0834C31.6949 25.6448 29.717 23.668 27.2771 23.668C24.8373 23.668 22.8594 25.6448 22.8594 28.0834C22.8594 30.522 24.8373 32.4988 27.2771 32.4988Z" fill="#815EAD"/>
<path fill-rule="evenodd" clip-rule="evenodd" d="M16.0271 20.9168C18.467 20.9168 20.4449 18.9399 20.4449 16.5014C20.4449 14.0628 18.467 12.0859 16.0271 12.0859C13.5873 12.0859 11.6094 14.0628 11.6094 16.5014C11.6094 18.9399 13.5873 20.9168 16.0271 20.9168Z" fill="#AB4D85"/>
<path fill-rule="evenodd" clip-rule="evenodd" d="M16.0271 32.4988C18.467 32.4988 20.4449 30.522 20.4449 28.0834C20.4449 25.6449 18.467 23.668 16.0271 23.668C13.5873 23.668 11.6094 25.6449 11.6094 28.0834C11.6094 30.522 13.5873 32.4988 16.0271 32.4988Z" fill="#576ED6"/>
<path fill-rule="evenodd" clip-rule="evenodd" d="M4.77712 32.4988C7.21697 32.4988 9.19486 30.522 9.19486 28.0834C9.19486 25.6448 7.21697 23.668 4.77712 23.668C2.33727 23.668 0.359375 25.6448 0.359375 28.0834C0.359375 30.522 2.33727 32.4988 4.77712 32.4988Z" fill="#2D7EFF"/>
<path d="M53.8796 25.9344C51.2637 25.9344 49.2248 23.934 49.2248 20.7026C49.2248 17.5865 51.2637 15.5861 53.8796 15.5861C56.3801 15.5861 58.4575 17.625 58.4575 20.7026C58.4575 23.8955 56.3801 25.9344 53.8796 25.9344ZM48.9555 27.8579C50.3789 30.2046 53.2256 31.0894 55.1876 31.0894C60.1886 31.0894 64.3434 26.8577 64.3434 20.7795C64.3434 14.8936 60.4579 10.4311 55.0722 10.4311C52.9179 10.4311 50.6481 11.3159 49.3786 13.2779V3.19884H43.5312V30.6277H48.9555V27.8579Z" fill="#0D0A2C"/>
<path d="M74.3695 10.8928H68.5606V30.6277H74.4465V22.6645C74.4465 18.5483 76.4854 15.9708 79.8707 15.9708C80.4477 15.9708 80.8709 16.0477 81.1787 16.1631V10.585C80.8709 10.4696 80.4093 10.4311 79.9476 10.4311C77.3317 10.4311 75.4082 11.893 74.3695 14.3166V10.8928Z" fill="#0D0A2C"/>
<path d="M84.6112 30.6277H90.4586V10.8928H84.6112V30.6277ZM87.4579 2.16016C85.6499 2.16016 84.2265 3.46813 84.2265 5.2762C84.2265 7.08428 85.6499 8.43072 87.4579 8.43072C89.266 8.43072 90.7279 7.08428 90.7279 5.2762C90.7279 3.46813 89.266 2.16016 87.4579 2.16016Z" fill="#0D0A2C"/>
<path d="M100.308 20.741L93.5377 30.6277H100.078L103.771 24.7419L107.464 30.6277H114.004L107.233 20.741L114.004 10.8928H107.348L103.771 16.8171L100.193 10.8928H93.5377L100.308 20.741Z" fill="#0D0A2C"/>
</svg>
